<svg id="visual" viewBox="0 0 900 600" width="900" height="600" xmlns="http://www.w3.org/2000/svg" xmlns:xlink="http://www.w3.org/1999/xlink" version="1.1"><rect x="0" y="0" width="900" height="600" fill="#CAEBE8"></rect><defs><linearGradient id="grad1_0" x1="33.3%" y1="0%" x2="100%" y2="100%"><stop offset="20%" stop-color="#76d8d0" stop-opacity="1"></stop><stop offset="80%" stop-color="#76d8d0" stop-opacity="1"></stop></linearGradient></defs><defs><linearGradient id="grad1_1" x1="33.3%" y1="0%" x2="100%" y2="100%"><stop offset="20%" stop-color="#76d8d0" stop-opacity="1"></stop><stop offset="80%" stop-color="#86dbd4" stop-opacity="1"></stop></linearGradient></defs><defs><linearGradient id="grad1_2" x1="33.3%" y1="0%" x2="100%" y2="100%"><stop offset="20%" stop-color="#95dfd8" stop-opacity="1"></stop><stop offset="80%" stop-color="#86dbd4" stop-opacity="1"></stop></linearGradient></defs><defs><linearGradient id="grad1_3" x1="33.3%" y1="0%" x2="100%" y2="100%"><stop offset="20%" stop-color="#95dfd8" stop-opacity="1"></stop><stop offset="80%" stop-color="#a3e2dc" stop-opacity="1"></stop></linearGradient></defs><defs><linearGradient id="grad1_4" x1="33.3%" y1="0%" x2="100%" y2="100%"><stop offset="20%" stop-color="#b0e5e0" stop-opacity="1"></stop><stop offset="80%" stop-color="#a3e2dc" stop-opacity="1"></stop></linearGradient></defs><defs><linearGradient id="grad1_5" x1="33.3%" y1="0%" x2="100%" y2="100%"><stop offset="20%" stop-color="#b0e5e0" stop-opacity="1"></stop><stop offset="80%" stop-color="#bde8e4" stop-opacity="1"></stop></linearGradient></defs><defs><linearGradient id="grad1_6" x1="33.3%" y1="0%" x2="100%" y2="100%"><stop offset="20%" stop-color="#caebe8" stop-opacity="1"></stop><stop offset="80%" stop-color="#bde8e4" stop-opacity="1"></stop></linearGradient></defs><defs><linearGradient id="grad2_0" x1="0%" y1="0%" x2="66.7%" y2="100%"><stop offset="20%" stop-color="#76d8d0" stop-opacity="1"></stop><stop offset="80%" stop-color="#76d8d0" stop-opacity="1"></stop></linearGradient></defs><defs><linearGradient id="grad2_1" x1="0%" y1="0%" x2="66.7%" y2="100%"><stop offset="20%" stop-color="#86dbd4" stop-opacity="1"></stop><stop offset="80%" stop-color="#76d8d0" stop-opacity="1"></stop></linearGradient></defs><defs><linearGradient id="grad2_2" x1="0%" y1="0%" x2="66.7%" y2="100%"><stop offset="20%" stop-color="#86dbd4" stop-opacity="1"></stop><stop offset="80%" stop-color="#95dfd8" stop-opacity="1"></stop></linearGradient></defs><defs><linearGradient id="grad2_3" x1="0%" y1="0%" x2="66.7%" y2="100%"><stop offset="20%" stop-color="#a3e2dc" stop-opacity="1"></stop><stop offset="80%" stop-color="#95dfd8" stop-opacity="1"></stop></linearGradient></defs><defs><linearGradient id="grad2_4" x1="0%" y1="0%" x2="66.7%" y2="100%"><stop offset="20%" stop-color="#a3e2dc" stop-opacity="1"></stop><stop offset="80%" stop-color="#b0e5e0" stop-opacity="1"></stop></linearGradient></defs><defs><linearGradient id="grad2_5" x1="0%" y1="0%" x2="66.7%" y2="100%"><stop offset="20%" stop-color="#bde8e4" stop-opacity="1"></stop><stop offset="80%" stop-color="#b0e5e0" stop-opacity="1"></stop></linearGradient></defs><defs><linearGradient id="grad2_6" x1="0%" y1="0%" x2="66.7%" y2="100%"><stop offset="20%" stop-color="#bde8e4" stop-opacity="1"></stop><stop offset="80%" stop-color="#caebe8" stop-opacity="1"></stop></linearGradient></defs><g transform="translate(900, 0)"><path d="M0 486.7C-60.4 459.6 -120.8 432.5 -164.6 397.3C-208.3 362.1 -235.4 318.8 -286.4 286.4C-337.4 253.9 -412.3 232.2 -449.7 186.3C-487.1 140.3 -486.9 70.2 -486.7 0L0 0Z" fill="#c4e9e6"></path><path d="M0 417.2C-51.8 393.9 -103.6 370.7 -141 340.5C-178.5 310.4 -201.7 273.3 -245.5 245.5C-289.2 217.6 -353.4 199 -385.5 159.7C-417.5 120.3 -417.4 60.1 -417.2 0L0 0Z" fill="#b7e6e2"></path><path d="M0 347.7C-43.1 328.3 -86.3 308.9 -117.5 283.8C-148.8 258.6 -168.1 227.7 -204.6 204.6C-241 181.4 -294.5 165.9 -321.2 133.1C-347.9 100.2 -347.8 50.1 -347.7 0L0 0Z" fill="#a9e3de"></path><path d="M0 278.1C-34.5 262.6 -69 247.1 -94 227C-119 206.9 -134.5 182.2 -163.6 163.6C-192.8 145.1 -235.6 132.7 -257 106.4C-278.3 80.2 -278.2 40.1 -278.1 0L0 0Z" fill="#9ce0da"></path><path d="M0 208.6C-25.9 197 -51.8 185.3 -70.5 170.3C-89.3 155.2 -100.9 136.6 -122.7 122.7C-144.6 108.8 -176.7 99.5 -192.7 79.8C-208.7 60.1 -208.7 30.1 -208.6 0L0 0Z" fill="#8dddd6"></path><path d="M0 139.1C-17.3 131.3 -34.5 123.6 -47 113.5C-59.5 103.5 -67.2 91.1 -81.8 81.8C-96.4 72.5 -117.8 66.3 -128.5 53.2C-139.2 40.1 -139.1 20 -139.1 0L0 0Z" fill="#7edad2"></path><path d="M0 69.5C-8.6 65.7 -17.3 61.8 -23.5 56.8C-29.8 51.7 -33.6 45.5 -40.9 40.9C-48.2 36.3 -58.9 33.2 -64.2 26.6C-69.6 20 -69.6 10 -69.5 0L0 0Z" fill="#76d8d0"></path></g><g transform="translate(0, 600)"><path d="M0 -486.7C65.5 -483 131 -479.3 186.3 -449.7C241.6 -420.1 286.7 -364.6 309.7 -309.7C332.7 -254.8 333.6 -200.4 359.4 -148.9C385.2 -97.3 436 -48.7 486.7 0L0 0Z" fill="#c4e9e6"></path><path d="M0 -417.2C56.1 -414 112.3 -410.8 159.7 -385.5C207.1 -360.1 245.8 -312.5 265.5 -265.5C285.2 -218.4 285.9 -171.8 308 -127.6C330.2 -83.4 373.7 -41.7 417.2 0L0 0Z" fill="#b7e6e2"></path><path d="M0 -347.7C46.8 -345 93.5 -342.4 133.1 -321.2C172.6 -300.1 204.8 -260.5 221.2 -221.2C237.7 -182 238.3 -143.1 256.7 -106.3C275.1 -69.5 311.4 -34.8 347.7 0L0 0Z" fill="#a9e3de"></path><path d="M0 -278.1C37.4 -276 74.8 -273.9 106.4 -257C138 -240.1 163.8 -208.4 177 -177C190.1 -145.6 190.6 -114.5 205.4 -85.1C220.1 -55.6 249.1 -27.8 278.1 0L0 0Z" fill="#9ce0da"></path><path d="M0 -208.6C28.1 -207 56.1 -205.4 79.8 -192.7C103.5 -180 122.9 -156.3 132.7 -132.7C142.6 -109.2 143 -85.9 154 -63.8C165.1 -41.7 186.8 -20.9 208.6 0L0 0Z" fill="#8dddd6"></path><path d="M0 -139.1C18.7 -138 37.4 -136.9 53.2 -128.5C69 -120 81.9 -104.2 88.5 -88.5C95.1 -72.8 95.3 -57.3 102.7 -42.5C110.1 -27.8 124.6 -13.9 139.1 0L0 0Z" fill="#7edad2"></path><path d="M0 -69.5C9.4 -69 18.7 -68.5 26.6 -64.2C34.5 -60 41 -52.1 44.2 -44.2C47.5 -36.4 47.7 -28.6 51.3 -21.3C55 -13.9 62.3 -7 69.5 0L0 0Z" fill="#76d8d0"></path></g></svg>