<svg id="visual" viewBox="0 0 900 600" width="900" height="600" xmlns="http://www.w3.org/2000/svg" xmlns:xlink="http://www.w3.org/1999/xlink" version="1.1"><rect x="0" y="0" width="900" height="600" fill="#caebe8"></rect><path d="M0 384L21.5 392.5C43 401 86 418 128.8 423.3C171.7 428.7 214.3 422.3 257.2 424.3C300 426.3 343 436.7 385.8 427.5C428.7 418.3 471.3 389.7 514.2 384.2C557 378.7 600 396.3 642.8 397C685.7 397.7 728.3 381.3 771.2 377.3C814 373.3 857 381.7 878.5 385.8L900 390L900 601L878.5 601C857 601 814 601 771.2 601C728.3 601 685.7 601 642.8 601C600 601 557 601 514.2 601C471.3 601 428.7 601 385.8 601C343 601 300 601 257.2 601C214.3 601 171.7 601 128.8 601C86 601 43 601 21.5 601L0 601Z" fill="#b695c0"></path><path d="M0 469L21.5 466.3C43 463.7 86 458.3 128.8 453.7C171.7 449 214.3 445 257.2 436.3C300 427.7 343 414.3 385.8 411.2C428.7 408 471.3 415 514.2 418.8C557 422.7 600 423.3 642.8 432.5C685.7 441.7 728.3 459.3 771.2 454.5C814 449.7 857 422.3 878.5 408.7L900 395L900 601L878.5 601C857 601 814 601 771.2 601C728.3 601 685.7 601 642.8 601C600 601 557 601 514.2 601C471.3 601 428.7 601 385.8 601C343 601 300 601 257.2 601C214.3 601 171.7 601 128.8 601C86 601 43 601 21.5 601L0 601Z" fill="#de9cb9"></path><path d="M0 437L21.5 443.2C43 449.3 86 461.7 128.8 468C171.7 474.3 214.3 474.7 257.2 473.2C300 471.7 343 468.3 385.8 465.3C428.7 462.3 471.3 459.7 514.2 458.7C557 457.7 600 458.3 642.8 462C685.7 465.7 728.3 472.3 771.2 475.2C814 478 857 477 878.5 476.5L900 476L900 601L878.5 601C857 601 814 601 771.2 601C728.3 601 685.7 601 642.8 601C600 601 557 601 514.2 601C471.3 601 428.7 601 385.8 601C343 601 300 601 257.2 601C214.3 601 171.7 601 128.8 601C86 601 43 601 21.5 601L0 601Z" fill="#f8aaaa"></path><path d="M0 500L21.5 500.5C43 501 86 502 128.8 500.5C171.7 499 214.3 495 257.2 495.3C300 495.7 343 500.3 385.8 498.8C428.7 497.3 471.3 489.7 514.2 491.5C557 493.3 600 504.7 642.8 507.5C685.7 510.3 728.3 504.7 771.2 499.7C814 494.7 857 490.3 878.5 488.2L900 486L900 601L878.5 601C857 601 814 601 771.2 601C728.3 601 685.7 601 642.8 601C600 601 557 601 514.2 601C471.3 601 428.7 601 385.8 601C343 601 300 601 257.2 601C214.3 601 171.7 601 128.8 601C86 601 43 601 21.5 601L0 601Z" fill="#ffbf9c"></path><path d="M0 542L21.5 544.2C43 546.3 86 550.7 128.8 555C171.7 559.3 214.3 563.7 257.2 561.2C300 558.7 343 549.3 385.8 550.3C428.7 551.3 471.3 562.7 514.2 567.5C557 572.3 600 570.7 642.8 566.2C685.7 561.7 728.3 554.3 771.2 551.2C814 548 857 549 878.5 549.5L900 550L900 601L878.5 601C857 601 814 601 771.2 601C728.3 601 685.7 601 642.8 601C600 601 557 601 514.2 601C471.3 601 428.7 601 385.8 601C343 601 300 601 257.2 601C214.3 601 171.7 601 128.8 601C86 601 43 601 21.5 601L0 601Z" fill="#f9d99a"></path></svg>