<svg id="visual" viewBox="0 0 900 600" width="900" height="600" xmlns="http://www.w3.org/2000/svg" xmlns:xlink="http://www.w3.org/1999/xlink" version="1.1"><rect x="0" y="0" width="900" height="600" fill="#CAEBE8"></rect><defs><linearGradient id="grad1_0" x1="33.3%" y1="0%" x2="100%" y2="100%"><stop offset="20%" stop-color="#76d8d0" stop-opacity="1"></stop><stop offset="80%" stop-color="#76d8d0" stop-opacity="1"></stop></linearGradient></defs><defs><linearGradient id="grad1_1" x1="33.3%" y1="0%" x2="100%" y2="100%"><stop offset="20%" stop-color="#76d8d0" stop-opacity="1"></stop><stop offset="80%" stop-color="#86dbd4" stop-opacity="1"></stop></linearGradient></defs><defs><linearGradient id="grad1_2" x1="33.3%" y1="0%" x2="100%" y2="100%"><stop offset="20%" stop-color="#95dfd8" stop-opacity="1"></stop><stop offset="80%" stop-color="#86dbd4" stop-opacity="1"></stop></linearGradient></defs><defs><linearGradient id="grad1_3" x1="33.3%" y1="0%" x2="100%" y2="100%"><stop offset="20%" stop-color="#95dfd8" stop-opacity="1"></stop><stop offset="80%" stop-color="#a3e2dc" stop-opacity="1"></stop></linearGradient></defs><defs><linearGradient id="grad1_4" x1="33.3%" y1="0%" x2="100%" y2="100%"><stop offset="20%" stop-color="#b0e5e0" stop-opacity="1"></stop><stop offset="80%" stop-color="#a3e2dc" stop-opacity="1"></stop></linearGradient></defs><defs><linearGradient id="grad1_5" x1="33.3%" y1="0%" x2="100%" y2="100%"><stop offset="20%" stop-color="#b0e5e0" stop-opacity="1"></stop><stop offset="80%" stop-color="#bde8e4" stop-opacity="1"></stop></linearGradient></defs><defs><linearGradient id="grad1_6" x1="33.3%" y1="0%" x2="100%" y2="100%"><stop offset="20%" stop-color="#caebe8" stop-opacity="1"></stop><stop offset="80%" stop-color="#bde8e4" stop-opacity="1"></stop></linearGradient></defs><defs><linearGradient id="grad2_0" x1="0%" y1="0%" x2="66.7%" y2="100%"><stop offset="20%" stop-color="#76d8d0" stop-opacity="1"></stop><stop offset="80%" stop-color="#76d8d0" stop-opacity="1"></stop></linearGradient></defs><defs><linearGradient id="grad2_1" x1="0%" y1="0%" x2="66.7%" y2="100%"><stop offset="20%" stop-color="#86dbd4" stop-opacity="1"></stop><stop offset="80%" stop-color="#76d8d0" stop-opacity="1"></stop></linearGradient></defs><defs><linearGradient id="grad2_2" x1="0%" y1="0%" x2="66.7%" y2="100%"><stop offset="20%" stop-color="#86dbd4" stop-opacity="1"></stop><stop offset="80%" stop-color="#95dfd8" stop-opacity="1"></stop></linearGradient></defs><defs><linearGradient id="grad2_3" x1="0%" y1="0%" x2="66.7%" y2="100%"><stop offset="20%" stop-color="#a3e2dc" stop-opacity="1"></stop><stop offset="80%" stop-color="#95dfd8" stop-opacity="1"></stop></linearGradient></defs><defs><linearGradient id="grad2_4" x1="0%" y1="0%" x2="66.7%" y2="100%"><stop offset="20%" stop-color="#a3e2dc" stop-opacity="1"></stop><stop offset="80%" stop-color="#b0e5e0" stop-opacity="1"></stop></linearGradient></defs><defs><linearGradient id="grad2_5" x1="0%" y1="0%" x2="66.7%" y2="100%"><stop offset="20%" stop-color="#bde8e4" stop-opacity="1"></stop><stop offset="80%" stop-color="#b0e5e0" stop-opacity="1"></stop></linearGradient></defs><defs><linearGradient id="grad2_6" x1="0%" y1="0%" x2="66.7%" y2="100%"><stop offset="20%" stop-color="#bde8e4" stop-opacity="1"></stop><stop offset="80%" stop-color="#caebe8" stop-opacity="1"></stop></linearGradient></defs><g transform="translate(900, 0)"><path d="M0 486.7C-43 459.7 -86 432.7 -137.5 423.2C-189 413.7 -248.9 421.6 -286.1 393.8C-323.3 365.9 -337.8 302.3 -346.3 251.6C-354.7 200.9 -357.1 163.1 -379.5 123.3C-401.9 83.5 -444.3 41.8 -486.7 0L0 0Z" fill="#c4e9e6"></path><path d="M0 417.2C-36.9 394.1 -73.8 370.9 -117.9 362.8C-162 354.6 -213.3 361.4 -245.2 337.5C-277.1 313.7 -289.6 259.1 -296.8 215.6C-304 172.2 -306.1 139.8 -325.3 105.7C-344.5 71.6 -380.8 35.8 -417.2 0L0 0Z" fill="#b7e6e2"></path><path d="M0 347.7C-30.7 328.4 -61.5 309.1 -98.2 302.3C-135 295.5 -177.8 301.2 -204.4 281.3C-230.9 261.4 -241.3 215.9 -247.3 179.7C-253.4 143.5 -255 116.5 -271.1 88.1C-287.1 59.7 -317.4 29.8 -347.7 0L0 0Z" fill="#a9e3de"></path><path d="M0 278.1C-24.6 262.7 -49.2 247.3 -78.6 241.8C-108 236.4 -142.2 240.9 -163.5 225C-184.8 209.1 -193 172.7 -197.9 143.8C-202.7 114.8 -204 93.2 -216.8 70.5C-229.6 47.7 -253.9 23.9 -278.1 0L0 0Z" fill="#9ce0da"></path><path d="M0 208.6C-18.4 197 -36.9 185.5 -58.9 181.4C-81 177.3 -106.7 180.7 -122.6 168.8C-138.6 156.8 -144.8 129.6 -148.4 107.8C-152 86.1 -153 69.9 -162.6 52.8C-172.2 35.8 -190.4 17.9 -208.6 0L0 0Z" fill="#8dddd6"></path><path d="M0 139.1C-12.3 131.4 -24.6 123.6 -39.3 120.9C-54 118.2 -71.1 120.5 -81.7 112.5C-92.4 104.6 -96.5 86.4 -98.9 71.9C-101.3 57.4 -102 46.6 -108.4 35.2C-114.8 23.9 -126.9 11.9 -139.1 0L0 0Z" fill="#7edad2"></path><path d="M0 69.5C-6.1 65.7 -12.3 61.8 -19.6 60.5C-27 59.1 -35.6 60.2 -40.9 56.3C-46.2 52.3 -48.3 43.2 -49.5 35.9C-50.7 28.7 -51 23.3 -54.2 17.6C-57.4 11.9 -63.5 6 -69.5 0L0 0Z" fill="#76d8d0"></path></g><g transform="translate(0, 600)"><path d="M0 -486.7C47.5 -468.4 94.9 -450 139.7 -429.9C184.4 -409.8 226.5 -388 261 -359.2C295.4 -330.4 322.3 -294.6 358.4 -260.4C394.5 -226.2 440 -193.5 462.9 -150.4C485.9 -107.3 486.3 -53.6 486.7 0L0 0Z" fill="#c4e9e6"></path><path d="M0 -417.2C40.7 -401.5 81.4 -385.7 119.7 -368.5C158.1 -351.2 194.2 -332.6 223.7 -307.9C253.2 -283.2 276.2 -252.5 307.2 -223.2C338.2 -193.9 377.1 -165.9 396.8 -128.9C416.5 -92 416.8 -46 417.2 0L0 0Z" fill="#b7e6e2"></path><path d="M0 -347.7C33.9 -334.5 67.8 -321.4 99.8 -307.1C131.7 -292.7 161.8 -277.1 186.4 -256.6C211 -236 230.2 -210.4 256 -186C281.8 -161.6 314.3 -138.2 330.7 -107.4C347.1 -76.6 347.4 -38.3 347.7 0L0 0Z" fill="#a9e3de"></path><path d="M0 -278.1C27.1 -267.6 54.2 -257.1 79.8 -245.6C105.4 -234.2 129.4 -221.7 149.1 -205.3C168.8 -188.8 184.1 -168.3 204.8 -148.8C225.4 -129.2 251.4 -110.6 264.5 -86C277.6 -61.3 277.9 -30.7 278.1 0L0 0Z" fill="#9ce0da"></path><path d="M0 -208.6C20.3 -200.7 40.7 -192.8 59.9 -184.2C79 -175.6 97.1 -166.3 111.8 -153.9C126.6 -141.6 138.1 -126.3 153.6 -111.6C169.1 -96.9 188.6 -82.9 198.4 -64.5C208.2 -46 208.4 -23 208.6 0L0 0Z" fill="#8dddd6"></path><path d="M0 -139.1C13.6 -133.8 27.1 -128.6 39.9 -122.8C52.7 -117.1 64.7 -110.9 74.6 -102.6C84.4 -94.4 92.1 -84.2 102.4 -74.4C112.7 -64.6 125.7 -55.3 132.3 -43C138.8 -30.7 138.9 -15.3 139.1 0L0 0Z" fill="#7edad2"></path><path d="M0 -69.5C6.8 -66.9 13.6 -64.3 20 -61.4C26.3 -58.5 32.4 -55.4 37.3 -51.3C42.2 -47.2 46 -42.1 51.2 -37.2C56.4 -32.3 62.9 -27.6 66.1 -21.5C69.4 -15.3 69.5 -7.7 69.5 0L0 0Z" fill="#76d8d0"></path></g></svg>