<svg id="visual" viewBox="0 0 900 600" width="900" height="600" xmlns="http://www.w3.org/2000/svg" xmlns:xlink="http://www.w3.org/1999/xlink" version="1.1"><rect x="0" y="0" width="900" height="600" fill="#caebe8"></rect><path d="M0 454L21.5 453C43 452 86 450 128.8 442.8C171.7 435.7 214.3 423.3 257.2 417.7C300 412 343 413 385.8 414.8C428.7 416.7 471.3 419.3 514.2 417.8C557 416.3 600 410.7 642.8 409.3C685.7 408 728.3 411 771.2 421.5C814 432 857 450 878.5 459L900 468L900 601L878.5 601C857 601 814 601 771.2 601C728.3 601 685.7 601 642.8 601C600 601 557 601 514.2 601C471.3 601 428.7 601 385.8 601C343 601 300 601 257.2 601C214.3 601 171.7 601 128.8 601C86 601 43 601 21.5 601L0 601Z" fill="#b695c0"></path><path d="M0 465L21.5 462.2C43 459.3 86 453.7 128.8 447C171.7 440.3 214.3 432.7 257.2 430.5C300 428.3 343 431.7 385.8 432.7C428.7 433.7 471.3 432.3 514.2 440.2C557 448 600 465 642.8 468.7C685.7 472.3 728.3 462.7 771.2 455.2C814 447.7 857 442.3 878.5 439.7L900 437L900 601L878.5 601C857 601 814 601 771.2 601C728.3 601 685.7 601 642.8 601C600 601 557 601 514.2 601C471.3 601 428.7 601 385.8 601C343 601 300 601 257.2 601C214.3 601 171.7 601 128.8 601C86 601 43 601 21.5 601L0 601Z" fill="#ce9bbd"></path><path d="M0 478L21.5 479.7C43 481.3 86 484.7 128.8 483.5C171.7 482.3 214.3 476.7 257.2 471.2C300 465.7 343 460.3 385.8 457.3C428.7 454.3 471.3 453.7 514.2 455.2C557 456.7 600 460.3 642.8 466.7C685.7 473 728.3 482 771.2 481.7C814 481.3 857 471.7 878.5 466.8L900 462L900 601L878.5 601C857 601 814 601 771.2 601C728.3 601 685.7 601 642.8 601C600 601 557 601 514.2 601C471.3 601 428.7 601 385.8 601C343 601 300 601 257.2 601C214.3 601 171.7 601 128.8 601C86 601 43 601 21.5 601L0 601Z" fill="#e0a4b8"></path><path d="M0 517L21.5 511.7C43 506.3 86 495.7 128.8 491.7C171.7 487.7 214.3 490.3 257.2 488.7C300 487 343 481 385.8 484.2C428.7 487.3 471.3 499.7 514.2 499.7C557 499.7 600 487.3 642.8 487.3C685.7 487.3 728.3 499.7 771.2 506.5C814 513.3 857 514.7 878.5 515.3L900 516L900 601L878.5 601C857 601 814 601 771.2 601C728.3 601 685.7 601 642.8 601C600 601 557 601 514.2 601C471.3 601 428.7 601 385.8 601C343 601 300 601 257.2 601C214.3 601 171.7 601 128.8 601C86 601 43 601 21.5 601L0 601Z" fill="#eeaeb4"></path><path d="M0 493L21.5 493.8C43 494.7 86 496.3 128.8 497.7C171.7 499 214.3 500 257.2 503.7C300 507.3 343 513.7 385.8 512.5C428.7 511.3 471.3 502.7 514.2 501.5C557 500.3 600 506.7 642.8 509C685.7 511.3 728.3 509.7 771.2 512.3C814 515 857 522 878.5 525.5L900 529L900 601L878.5 601C857 601 814 601 771.2 601C728.3 601 685.7 601 642.8 601C600 601 557 601 514.2 601C471.3 601 428.7 601 385.8 601C343 601 300 601 257.2 601C214.3 601 171.7 601 128.8 601C86 601 43 601 21.5 601L0 601Z" fill="#f7bab1"></path><path d="M0 547L21.5 543.3C43 539.7 86 532.3 128.8 527.8C171.7 523.3 214.3 521.7 257.2 523.2C300 524.7 343 529.3 385.8 534.3C428.7 539.3 471.3 544.7 514.2 542.8C557 541 600 532 642.8 530.7C685.7 529.3 728.3 535.7 771.2 534.2C814 532.7 857 523.3 878.5 518.7L900 514L900 601L878.5 601C857 601 814 601 771.2 601C728.3 601 685.7 601 642.8 601C600 601 557 601 514.2 601C471.3 601 428.7 601 385.8 601C343 601 300 601 257.2 601C214.3 601 171.7 601 128.8 601C86 601 43 601 21.5 601L0 601Z" fill="#fcc8b1"></path><path d="M0 557L21.5 555.5C43 554 86 551 128.8 553C171.7 555 214.3 562 257.2 560.5C300 559 343 549 385.8 543.5C428.7 538 471.3 537 514.2 538.7C557 540.3 600 544.7 642.8 547C685.7 549.3 728.3 549.7 771.2 551C814 552.3 857 554.7 878.5 555.8L900 557L900 601L878.5 601C857 601 814 601 771.2 601C728.3 601 685.7 601 642.8 601C600 601 557 601 514.2 601C471.3 601 428.7 601 385.8 601C343 601 300 601 257.2 601C214.3 601 171.7 601 128.8 601C86 601 43 601 21.5 601L0 601Z" fill="#fdd7b4"></path><path d="M0 568L21.5 566.8C43 565.7 86 563.3 128.8 565C171.7 566.7 214.3 572.3 257.2 573C300 573.7 343 569.3 385.8 566.8C428.7 564.3 471.3 563.7 514.2 562.8C557 562 600 561 642.8 563C685.7 565 728.3 570 771.2 571C814 572 857 569 878.5 567.5L900 566L900 601L878.5 601C857 601 814 601 771.2 601C728.3 601 685.7 601 642.8 601C600 601 557 601 514.2 601C471.3 601 428.7 601 385.8 601C343 601 300 601 257.2 601C214.3 601 171.7 601 128.8 601C86 601 43 601 21.5 601L0 601Z" fill="#fbe6bc"></path></svg>