<svg id="visual" viewBox="0 0 900 600" width="900" height="600" xmlns="http://www.w3.org/2000/svg" xmlns:xlink="http://www.w3.org/1999/xlink" version="1.1"><rect x="0" y="0" width="900" height="600" fill="#c8f4f1"></rect><defs><linearGradient id="grad1_0" x1="33.3%" y1="0%" x2="100%" y2="100%"><stop offset="20%" stop-color="#b695c0" stop-opacity="1"></stop><stop offset="80%" stop-color="#b695c0" stop-opacity="1"></stop></linearGradient></defs><defs><linearGradient id="grad1_1" x1="33.3%" y1="0%" x2="100%" y2="100%"><stop offset="20%" stop-color="#b695c0" stop-opacity="1"></stop><stop offset="80%" stop-color="#afa5d2" stop-opacity="1"></stop></linearGradient></defs><defs><linearGradient id="grad1_2" x1="33.3%" y1="0%" x2="100%" y2="100%"><stop offset="20%" stop-color="#a8b4df" stop-opacity="1"></stop><stop offset="80%" stop-color="#afa5d2" stop-opacity="1"></stop></linearGradient></defs><defs><linearGradient id="grad1_3" x1="33.3%" y1="0%" x2="100%" y2="100%"><stop offset="20%" stop-color="#a8b4df" stop-opacity="1"></stop><stop offset="80%" stop-color="#a4c3e7" stop-opacity="1"></stop></linearGradient></defs><defs><linearGradient id="grad1_4" x1="33.3%" y1="0%" x2="100%" y2="100%"><stop offset="20%" stop-color="#a5d0ec" stop-opacity="1"></stop><stop offset="80%" stop-color="#a4c3e7" stop-opacity="1"></stop></linearGradient></defs><defs><linearGradient id="grad1_5" x1="33.3%" y1="0%" x2="100%" y2="100%"><stop offset="20%" stop-color="#a5d0ec" stop-opacity="1"></stop><stop offset="80%" stop-color="#abddef" stop-opacity="1"></stop></linearGradient></defs><defs><linearGradient id="grad1_6" x1="33.3%" y1="0%" x2="100%" y2="100%"><stop offset="20%" stop-color="#b8e9f0" stop-opacity="1"></stop><stop offset="80%" stop-color="#abddef" stop-opacity="1"></stop></linearGradient></defs><defs><linearGradient id="grad1_7" x1="33.3%" y1="0%" x2="100%" y2="100%"><stop offset="20%" stop-color="#b8e9f0" stop-opacity="1"></stop><stop offset="80%" stop-color="#c8f4f1" stop-opacity="1"></stop></linearGradient></defs><defs><linearGradient id="grad2_0" x1="0%" y1="0%" x2="66.7%" y2="100%"><stop offset="20%" stop-color="#b695c0" stop-opacity="1"></stop><stop offset="80%" stop-color="#b695c0" stop-opacity="1"></stop></linearGradient></defs><defs><linearGradient id="grad2_1" x1="0%" y1="0%" x2="66.7%" y2="100%"><stop offset="20%" stop-color="#afa5d2" stop-opacity="1"></stop><stop offset="80%" stop-color="#b695c0" stop-opacity="1"></stop></linearGradient></defs><defs><linearGradient id="grad2_2" x1="0%" y1="0%" x2="66.7%" y2="100%"><stop offset="20%" stop-color="#afa5d2" stop-opacity="1"></stop><stop offset="80%" stop-color="#a8b4df" stop-opacity="1"></stop></linearGradient></defs><defs><linearGradient id="grad2_3" x1="0%" y1="0%" x2="66.7%" y2="100%"><stop offset="20%" stop-color="#a4c3e7" stop-opacity="1"></stop><stop offset="80%" stop-color="#a8b4df" stop-opacity="1"></stop></linearGradient></defs><defs><linearGradient id="grad2_4" x1="0%" y1="0%" x2="66.7%" y2="100%"><stop offset="20%" stop-color="#a4c3e7" stop-opacity="1"></stop><stop offset="80%" stop-color="#a5d0ec" stop-opacity="1"></stop></linearGradient></defs><defs><linearGradient id="grad2_5" x1="0%" y1="0%" x2="66.7%" y2="100%"><stop offset="20%" stop-color="#abddef" stop-opacity="1"></stop><stop offset="80%" stop-color="#a5d0ec" stop-opacity="1"></stop></linearGradient></defs><defs><linearGradient id="grad2_6" x1="0%" y1="0%" x2="66.7%" y2="100%"><stop offset="20%" stop-color="#abddef" stop-opacity="1"></stop><stop offset="80%" stop-color="#b8e9f0" stop-opacity="1"></stop></linearGradient></defs><defs><linearGradient id="grad2_7" x1="0%" y1="0%" x2="66.7%" y2="100%"><stop offset="20%" stop-color="#c8f4f1" stop-opacity="1"></stop><stop offset="80%" stop-color="#b8e9f0" stop-opacity="1"></stop></linearGradient></defs><g transform="translate(900, 0)"><path d="M0 486.7C-59 466.3 -117.9 445.8 -175.3 423.1C-232.6 400.4 -288.3 375.5 -336.6 336.6C-384.9 297.6 -425.9 244.7 -449.7 186.3C-473.5 127.8 -480.1 63.9 -486.7 0L0 0Z" fill="#bfeff0"></path><path d="M0 425.9C-51.6 408 -103.2 390.1 -153.4 370.2C-203.5 350.4 -252.2 328.6 -294.5 294.5C-336.8 260.4 -372.7 214.1 -393.5 163C-414.3 111.9 -420.1 55.9 -425.9 0L0 0Z" fill="#b1e3ef"></path><path d="M0 365.1C-44.2 349.7 -88.5 334.4 -131.5 317.4C-174.4 300.3 -216.2 281.6 -252.4 252.4C-288.7 223.2 -319.4 183.5 -337.3 139.7C-355.1 95.9 -360.1 47.9 -365.1 0L0 0Z" fill="#a7d7ee"></path><path d="M0 304.2C-36.9 291.4 -73.7 278.6 -109.5 264.5C-145.4 250.3 -180.2 234.7 -210.4 210.4C-240.6 186 -266.2 152.9 -281.1 116.4C-295.9 79.9 -300.1 39.9 -304.2 0L0 0Z" fill="#a4caea"></path><path d="M0 243.4C-29.5 233.1 -59 222.9 -87.6 211.6C-116.3 200.2 -144.1 187.8 -168.3 168.3C-192.5 148.8 -212.9 122.4 -224.8 93.1C-236.8 63.9 -240.1 32 -243.4 0L0 0Z" fill="#a6bbe4"></path><path d="M0 182.5C-22.1 174.9 -44.2 167.2 -65.7 158.7C-87.2 150.2 -108.1 140.8 -126.2 126.2C-144.3 111.6 -159.7 91.8 -168.6 69.9C-177.6 47.9 -180 24 -182.5 0L0 0Z" fill="#abacd9"></path><path d="M0 121.7C-14.7 116.6 -29.5 111.5 -43.8 105.8C-58.1 100.1 -72.1 93.9 -84.1 84.1C-96.2 74.4 -106.5 61.2 -112.4 46.6C-118.4 32 -120 16 -121.7 0L0 0Z" fill="#b39dc9"></path><path d="M0 60.8C-7.4 58.3 -14.7 55.7 -21.9 52.9C-29.1 50.1 -36 46.9 -42.1 42.1C-48.1 37.2 -53.2 30.6 -56.2 23.3C-59.2 16 -60 8 -60.8 0L0 0Z" fill="#b695c0"></path></g><g transform="translate(0, 600)"><path d="M0 -486.7C67.1 -476.4 134.2 -466.1 177.9 -429.6C221.7 -393.1 242.3 -330.5 289.9 -289.9C337.6 -249.4 412.4 -230.9 449.7 -186.3C487 -141.6 486.9 -70.8 486.7 0L0 0Z" fill="#bfeff0"></path><path d="M0 -425.9C58.7 -416.9 117.4 -407.8 155.7 -375.9C194 -344 212 -289.2 253.7 -253.7C295.4 -218.2 360.8 -202 393.5 -163C426.1 -123.9 426 -62 425.9 0L0 0Z" fill="#b1e3ef"></path><path d="M0 -365.1C50.3 -357.3 100.6 -349.6 133.5 -322.2C166.3 -294.8 181.7 -247.8 217.4 -217.4C253.2 -187 309.3 -173.2 337.3 -139.7C365.3 -106.2 365.2 -53.1 365.1 0L0 0Z" fill="#a7d7ee"></path><path d="M0 -304.2C41.9 -297.8 83.8 -291.3 111.2 -268.5C138.6 -245.7 151.4 -206.5 181.2 -181.2C211 -155.9 257.7 -144.3 281.1 -116.4C304.4 -88.5 304.3 -44.3 304.2 0L0 0Z" fill="#a4caea"></path><path d="M0 -243.4C33.5 -238.2 67.1 -233 89 -214.8C110.9 -196.6 121.1 -165.2 145 -145C168.8 -124.7 206.2 -115.5 224.8 -93.1C243.5 -70.8 243.4 -35.4 243.4 0L0 0Z" fill="#a6bbe4"></path><path d="M0 -182.5C25.2 -178.7 50.3 -174.8 66.7 -161.1C83.2 -147.4 90.8 -123.9 108.7 -108.7C126.6 -93.5 154.6 -86.6 168.6 -69.9C182.6 -53.1 182.6 -26.6 182.5 0L0 0Z" fill="#abacd9"></path><path d="M0 -121.7C16.8 -119.1 33.5 -116.5 44.5 -107.4C55.4 -98.3 60.6 -82.6 72.5 -72.5C84.4 -62.3 103.1 -57.7 112.4 -46.6C121.8 -35.4 121.7 -17.7 121.7 0L0 0Z" fill="#b39dc9"></path><path d="M0 -60.8C8.4 -59.6 16.8 -58.3 22.2 -53.7C27.7 -49.1 30.3 -41.3 36.2 -36.2C42.2 -31.2 51.5 -28.9 56.2 -23.3C60.9 -17.7 60.9 -8.9 60.8 0L0 0Z" fill="#b695c0"></path></g></svg>